<?xml version="1.0" encoding="utf-8"?>
<!-- Generator: Adobe Illustrator 24.1.3, SVG Export Plug-In . SVG Version: 6.00 Build 0)  -->
<svg version="1.1" id="Capa_1" xmlns="http://www.w3.org/2000/svg" xmlns:xlink="http://www.w3.org/1999/xlink" x="0px" y="0px"
	 viewBox="0 0 460.3 460.3" style="enable-background:new 0 0 460.3 460.3;" xml:space="preserve">
<style type="text/css">
	.st0{fill:#FFFFFF;}
</style>
<path class="st0" d="M132.9,129.4c12.5-12.5,27-22.3,43.2-29.1c16.8-7.1,34.6-10.7,52.9-10.7s36.1,3.6,52.9,10.7
	c16.2,6.8,30.7,16.6,43.2,29.1c5.4,5.4,10.3,11.2,14.7,17.3v-14.6c0-46.7-38-84.8-84.8-84.8H149.8V10L13.3,96l97.9,61.7
	C117.1,147.4,124.4,137.9,132.9,129.4z"/>
<path class="st0" d="M444.7,355l-97.9-61.7c-5.9,10.3-13.2,19.8-21.7,28.3c-12.5,12.5-27,22.3-43.2,29.1
	c-16.8,7.1-34.6,10.7-52.9,10.7s-36.1-3.6-52.9-10.7c-16.2-6.8-30.7-16.6-43.2-29.1c-5.4-5.4-10.3-11.2-14.7-17.3v14.6
	c0,46.7,38,84.8,84.8,84.8h105.2V441L444.7,355z"/>
<path class="st0" d="M229,114.9c-60.9,0-110.2,49.3-110.2,110.2c0,60.9,49.3,110.2,110.2,110.2c60.9,0,110.2-49.3,110.2-110.2
	C339.2,164.2,289.9,114.9,229,114.9z M271.6,206.6c0,0.9-0.3,1.6-0.9,2.2c-0.6,0.6-1.3,0.9-2.2,0.9h-15.9
	c-1.4,9.1-5.5,16.5-12.2,22.2c-6.7,5.7-15.4,9.1-26.2,10.4c10.5,11.2,25,28.2,43.5,50.8c0.9,1,1,2.1,0.4,3.2
	c-0.6,1.1-1.5,1.7-2.8,1.7h-18.5c-1,0-1.8-0.3-2.4-1.1c-19.3-23.2-35.1-41.3-47.2-54.2c-0.6-0.6-0.9-1.3-0.9-2.1v-12
	c0-0.8,0.3-1.5,0.9-2.1c0.6-0.6,1.3-0.9,2.1-0.9h10.6c8.4,0,15.1-1.4,20.2-4.1c5.1-2.8,8.3-6.7,9.7-11.9h-40.5
	c-0.9,0-1.6-0.3-2.2-0.9c-0.6-0.6-0.9-1.3-0.9-2.2v-9.7c0-0.9,0.3-1.6,0.9-2.2c0.6-0.6,1.3-0.9,2.2-0.9h39.2
	c-3.6-7.1-12.1-10.7-25.4-10.7h-13.8c-0.8,0-1.5-0.3-2.1-0.9c-0.6-0.6-0.9-1.3-0.9-2.1v-12.8c0-0.9,0.3-1.6,0.9-2.2
	c0.6-0.6,1.3-0.9,2.2-0.9h78.9c0.9,0,1.6,0.3,2.2,0.9c0.6,0.6,0.9,1.3,0.9,2.2v9.7c0,0.9-0.3,1.6-0.9,2.2c-0.6,0.6-1.3,0.9-2.2,0.9
	h-22.1c3,3.9,5,8.5,6.1,13.7h16.2c0.9,0,1.6,0.3,2.2,0.9c0.6,0.5,0.9,1.3,0.9,2.3V206.6z"/>
</svg>
