<?xml version="1.0" encoding="utf-8"?>
<!-- Generator: Adobe Illustrator 24.1.3, SVG Export Plug-In . SVG Version: 6.00 Build 0)  -->
<svg version="1.1" id="Capa_1" xmlns="http://www.w3.org/2000/svg" xmlns:xlink="http://www.w3.org/1999/xlink" x="0px" y="0px"
	 viewBox="0 0 460.3 460.3" style="enable-background:new 0 0 460.3 460.3;" xml:space="preserve">
<style type="text/css">
	.st0{fill:#FFFFFF;}
</style>
<path class="st0" d="M100,156.1c0-13.5,2.3-24.9,7.8-35.5c12.3-23.7,32.7-33,58.4-32.7c40.7,0.5,64,35.5,63,71.4
	c-0.5,16.5-6.1,31.5-13.1,46.1c-6.6,13.7-14.9,26.4-24.9,38c-13.6,15.7-37.8,16.6-51.5,1.1c-19.6-22.1-33.3-47.4-38.5-76.8
	C100.3,163.3,100.2,158.9,100,156.1z"/>
<path class="st0" d="M125.3,436c-15.3,0-29.4,0-43.5,0c-14.7,0-29.5,0.1-44.2,0C16.7,435.9,2.4,417.8,8,397.6
	c6.7-24.1,14.2-48,21.2-72.1c1-3.3,2.7-4.9,6-5.8c24.3-6.6,46.7-17,65.4-34.4c4-3.7,8.3-7,12.4-10.6
	C117.1,327.5,121.2,381.4,125.3,436z"/>
<path class="st0" d="M204.9,433.9c4.1-54.1,8.2-107.9,12.2-161.8c8.4,7.7,15.8,15.4,24.1,21.9c15.9,12.4,34.4,19.8,53.7,25
	c3.2,0.9,4.9,2.3,5.8,5.4c7.1,24.2,14.6,48.2,21.3,72.5c5.2,18.6-7.8,37-26.7,37.3c-29.1,0.6-58.3,0.1-87.4,0.1
	C207.3,434.4,206.7,434.3,204.9,433.9z"/>
<path class="st0" d="M151.3,434.7c0.6-13.2,1.1-25.6,1.7-38c0.4-7.4,1-14.9,1.4-22.3c1-19.6,1.9-39.1,2.9-58.7
	c0.2-3.2,0.1-6.5,1-9.5c1.6-5.3-0.3-9.4-2.9-13.7c-3.8-6.3-7.4-12.8-11.4-19.7c14.3,0,27.9,0,42.3,0c-1.6,3.1-2.7,5.9-4.3,8.3
	c-7.5,11.1-9.4,23-8.3,36.5c2.8,33.4,4,67,5.8,100.5c0.2,4.4,0.7,8.8,0.6,13.2c0,1.1-1.7,3-2.6,3.1
	C168.9,434.8,160.4,434.7,151.3,434.7z"/>
<path class="st0" d="M448,130c-18-11.7-35.9-23.5-53.9-35c-2.9-1.8-3.8-3.8-3.7-7c0.2-10.8,0-21.6,0.2-32.4c0.1-4.1-0.9-5.8-5.3-5.5
	c-6,0.4-12.1,0.3-18.2,0c-4.1-0.3-5.2,1.3-5,5.2c0.3,5.8,0.1,11.6,0.1,18.5c-3-1.7-4.9-2.8-6.8-4c-18.4-12-37-23.9-55.3-36.1
	c-5.4-3.6-10.1-3.7-15.5-0.1c-19.1,12.6-38.5,24.9-57.7,37.4c-2.8,1.8-5.5,3.6-8.2,5.4c0.3,0.7,0.3,1.1,0.5,1.1c1,1,2.1,1.8,3.1,2.7
	c27.9,24.2,38.1,55.2,33.8,91.2c-2.6,21.5-11.3,41.2-22.4,59.7c-3.2,5.2-5.6,8.7-0.5,15.2c6.1,7.9,11.2,16.5,18.9,23.1
	c3.1,2.7,6.2,3.8,10.3,3.8c43.4-0.2,86.9-0.1,130.3-0.1c9.3,0,12.5-3.2,12.5-12.6c0-35.5,0-70.9,0-106.4c0-5.9,0-5.9,6.1-5.9
	c10.4,0,20.9,0,31.4,0c6,0,9.4-2,10.6-5.9C454.8,137.5,452.9,133.2,448,130z M356.9,158.2c0,0.7-0.3,1.3-0.7,1.7
	c-0.4,0.5-1,0.7-1.7,0.7h-12.6c-1.2,7.2-4.4,13-9.7,17.5c-5.3,4.5-12.2,7.2-20.7,8.2c8.4,8.8,19.8,22.2,34.4,40.1
	c0.7,0.8,0.8,1.6,0.3,2.5c-0.4,0.9-1.2,1.3-2.2,1.3h-14.5c-0.8,0-1.5-0.3-1.9-0.9c-15.3-18.4-27.7-32.6-37.3-42.8
	c-0.5-0.4-0.7-1-0.7-1.6v-9.5c0-0.7,0.2-1.2,0.7-1.7s1.1-0.7,1.7-0.7h8.4c6.6,0,11.9-1.1,15.9-3.2c4-2.2,6.6-5.3,7.7-9.4h-32
	c-0.7,0-1.3-0.3-1.7-0.7c-0.5-0.4-0.7-1-0.7-1.7v-7.6c0-0.7,0.3-1.3,0.7-1.7c0.4-0.5,1-0.7,1.7-0.7h31c-2.9-5.7-9.6-8.5-20.1-8.5
	H292c-0.7,0-1.2-0.2-1.7-0.7s-0.7-1.1-0.7-1.7v-10c0-0.7,0.3-1.3,0.7-1.7c0.4-0.5,1-0.7,1.7-0.7h62.2c0.7,0,1.2,0.3,1.7,0.7
	c0.5,0.4,0.7,1,0.7,1.7v7.6c0,0.7-0.3,1.3-0.7,1.7c-0.4,0.5-1,0.7-1.7,0.7h-17.4c2.4,3.1,4,6.7,4.8,10.8h12.8c0.7,0,1.3,0.3,1.7,0.7
	c0.5,0.5,0.7,1,0.8,2V158.2z"/>
</svg>
