<?xml version="1.0" encoding="utf-8"?>
<!-- Generator: Adobe Illustrator 24.1.3, SVG Export Plug-In . SVG Version: 6.00 Build 0)  -->
<svg version="1.1" id="Layer_1" xmlns="http://www.w3.org/2000/svg" xmlns:xlink="http://www.w3.org/1999/xlink" x="0px" y="0px"
	 viewBox="0 0 24 24" style="enable-background:new 0 0 24 24;" xml:space="preserve">
<style type="text/css">
	.st0{fill:#74C045;}
</style>
<path class="st0" d="M20,6h-8l-2-2H4C2.9,4,2,4.9,2,6l0,12c0,1.1,0.9,2,2,2h16c1.1,0,2-0.9,2-2V8C22,6.9,21.1,6,20,6z M14,16H6v-2h8
	V16z M18,12H6v-2h12V12z"/>
<path class="st0" d="M-163-65h-8c-1.1,0-2,0.9-2,2v16c0,1.1,0.9,2,2,2h12c1.1,0,2-0.9,2-2v-12L-163-65z M-167.7-47.6l-3.9-3.9l1-1
	l2.9,2.9l7.3-7.3l1,1L-167.7-47.6z M-164-58v-5.5l5.5,5.5H-164z"/>
</svg>
