<?xml version="1.0" encoding="utf-8"?>
<!-- Generator: Adobe Illustrator 24.1.3, SVG Export Plug-In . SVG Version: 6.00 Build 0)  -->
<svg version="1.1" id="Capa_1" xmlns="http://www.w3.org/2000/svg" xmlns:xlink="http://www.w3.org/1999/xlink" x="0px" y="0px"
	 viewBox="0 0 512 512" style="enable-background:new 0 0 512 512;" xml:space="preserve">
<style type="text/css">
	.st0{fill:#FFFFFF;}
</style>
<g>
	<g>
		<path class="st0" d="M183.3,493.8l-20.5-82c-1.1-4.6-5.2-7.8-9.9-7.8h-41c-4.7,0-8.8,3.2-9.9,7.8l-20.5,82
			c-0.8,3.1-0.1,6.3,1.9,8.8c1.9,2.5,4.9,3.9,8.1,3.9h82c3.2,0,6.1-1.5,8.1-3.9C183.3,500.1,184,496.8,183.3,493.8z"/>
	</g>
</g>
<g>
	<g>
		<path class="st0" d="M307.6,493.8l-21.9-82c-1.1-4.6-5.2-7.8-9.9-7.8h-41c-4.7,0-8.8,3.2-9.9,7.8l-20.5,82
			c-0.8,3.1-0.1,6.3,1.9,8.8c1.9,2.5,4.9,3.9,8.1,3.9h83.4c3.2,0,6.1-1.5,8.1-3.9C307.7,500.1,308.4,496.8,307.6,493.8z"/>
	</g>
</g>
<g>
	<g>
		<path class="st0" d="M244.8,370.8l-20.5-82c-1.1-4.6-5.2-7.8-9.9-7.8h-41c-4.7,0-8.8,3.2-9.9,7.8l-20.5,82
			c-0.8,3.1-0.1,6.3,1.9,8.8c1.9,2.5,4.9,3.9,8.1,3.9h82c3.2,0,6.1-1.5,8.1-3.9C244.8,377.1,245.5,373.8,244.8,370.8z"/>
	</g>
</g>
<g>
	<g>
		<g>
			<path class="st0" d="M255.2,20.7c-6.6,0-12,5.4-12,12v35.9c0,6.6,5.4,12,12,12c6.6,0,12-5.4,12-12V32.7
				C267.2,26.1,261.8,20.7,255.2,20.7z"/>
		</g>
	</g>
	<g>
		<g>
			<path class="st0" d="M182.8,76.8l-12-35.9c-2.1-6.3-8.8-9.7-15.1-7.6c-6.3,2.1-9.7,8.9-7.6,15.1l12,35.9c1.7,5,6.3,8.2,11.3,8.2
				c1.3,0,2.5-0.2,3.8-0.6C181.5,89.9,184.9,83.1,182.8,76.8z"/>
		</g>
	</g>
	<g>
		<g>
			<path class="st0" d="M106.3,118.5L70.3,94.6c-5.5-3.7-12.9-2.2-16.6,3.3c-3.7,5.5-2.2,12.9,3.3,16.6L93,138.4c2,1.4,4.3,2,6.6,2
				c3.9,0,7.7-1.9,10-5.3C113.2,129.6,111.8,122.2,106.3,118.5z"/>
		</g>
	</g>
	<g>
		<g>
			<path class="st0" d="M356.3,33.3c-6.3-2.1-13,1.3-15.1,7.6l-12,35.9c-2.1,6.3,1.3,13.1,7.6,15.1c1.3,0.4,2.5,0.6,3.8,0.6
				c5,0,9.7-3.2,11.3-8.2l12-35.9C366,42.2,362.6,35.4,356.3,33.3z"/>
		</g>
	</g>
	<g>
		<g>
			<path class="st0" d="M458.3,97.9c-3.7-5.5-11.1-7-16.6-3.3l-35.9,23.9c-5.5,3.7-7,11.1-3.3,16.6c2.3,3.5,6.1,5.3,10,5.3
				c2.3,0,4.6-0.7,6.6-2l35.9-23.9C460.4,110.8,461.9,103.4,458.3,97.9z"/>
		</g>
	</g>
</g>
<g>
	<g>
		<path class="st0" d="M369.1,370.8l-20.5-82c-1.1-4.6-5.2-7.8-9.9-7.8h-95.8c2.2,6.1-3.7-17.1,21.7,84.8c1.5,6,1,12.1-1,17.7h95.6
			c3.2,0,6.1-1.5,8.1-3.9C369.2,377.1,369.9,373.8,369.1,370.8z"/>
	</g>
</g>
<g>
	<g>
		<path class="st0" d="M430.6,493.8l-20.5-82c-1.1-4.6-5.2-7.8-9.9-7.8h-94.4c2.2,6.1-3.7-17.1,21.7,84.8c1.5,6,1,12.1-1,17.7h94.2
			c3.2,0,6.1-1.5,8.1-3.9C430.7,500.1,431.4,496.8,430.6,493.8z"/>
	</g>
</g>
<g>
	<g>
		<path class="st0" d="M181.4,404c2.1,5.8-2.4-11.8,12.4,47.5c14.8-59.2,10.3-41.6,12.4-47.5H181.4z"/>
	</g>
</g>
<path class="st0" d="M250.4,116.2c-36.9,0-66.8,29.9-66.8,66.8s29.9,66.8,66.8,66.8s66.8-29.9,66.8-66.8S287.3,116.2,250.4,116.2z
	 M272.2,170.6c0,0.5-0.2,0.8-0.5,1.1c-0.3,0.3-0.6,0.5-1.1,0.5h-8.2c-0.8,4.7-2.8,8.4-6.3,11.3c-3.4,2.9-7.9,4.7-13.4,5.3
	c5.4,5.7,12.8,14.4,22.3,25.9c0.5,0.5,0.5,1,0.2,1.6c-0.3,0.6-0.8,0.8-1.4,0.8h-9.4c-0.5,0-1-0.2-1.2-0.6
	c-9.9-11.9-17.9-21.1-24.1-27.7c-0.3-0.3-0.5-0.6-0.5-1v-6.1c0-0.5,0.1-0.8,0.5-1.1c0.3-0.3,0.7-0.5,1.1-0.5h5.4
	c4.3,0,7.7-0.7,10.3-2.1c2.6-1.4,4.3-3.4,5-6.1h-20.7c-0.5,0-0.8-0.2-1.1-0.5c-0.3-0.3-0.5-0.6-0.5-1.1v-4.9c0-0.5,0.2-0.8,0.5-1.1
	c0.3-0.3,0.6-0.5,1.1-0.5h20c-1.9-3.7-6.2-5.5-13-5.5h-7.1c-0.5,0-0.8-0.1-1.1-0.5s-0.5-0.7-0.5-1.1v-6.5c0-0.5,0.2-0.8,0.5-1.1
	c0.3-0.3,0.6-0.5,1.1-0.5h40.3c0.5,0,0.8,0.2,1.1,0.5c0.3,0.3,0.5,0.6,0.5,1.1v4.9c0,0.5-0.2,0.8-0.5,1.1c-0.3,0.3-0.6,0.5-1.1,0.5
	h-11.3c1.6,2,2.6,4.3,3.1,7h8.3c0.5,0,0.8,0.2,1.1,0.5c0.3,0.3,0.5,0.6,0.6,1.3V170.6z"/>
</svg>
