<?xml version="1.0" encoding="utf-8"?>
<!-- Generator: Adobe Illustrator 24.1.3, SVG Export Plug-In . SVG Version: 6.00 Build 0)  -->
<svg version="1.1" id="Capa_1" xmlns="http://www.w3.org/2000/svg" xmlns:xlink="http://www.w3.org/1999/xlink" x="0px" y="0px"
	 viewBox="0 0 460.3 460.3" style="enable-background:new 0 0 460.3 460.3;" xml:space="preserve">
<style type="text/css">
	.st0{fill:#FFFFFF;}
</style>
<path class="st0" d="M457.1,225.4l-62.5-52V57c0-2.7-0.9-4.9-2.6-6.6c-1.7-1.7-3.9-2.6-6.6-2.6h-54.8c-2.7,0-4.9,0.9-6.6,2.6
	c-1.7,1.7-2.6,3.9-2.6,6.6v55.7l-69.7-58.2c-6.1-4.9-13.3-7.4-21.7-7.4s-15.6,2.5-21.7,7.4L3.2,225.4c-1.9,1.6-3,3.6-3.2,6.2
	s0.5,4.8,2,6.7l17.7,21.1c1.5,1.7,3.5,2.8,6,3.1c2.3,0.2,4.6-0.5,6.9-2L230.1,95.8l197.6,164.7c1.5,1.3,3.5,2,6,2h0.9
	c2.5-0.4,4.5-1.4,6-3.1l17.7-21.1c1.5-1.9,2.2-4.1,2-6.7S459,227,457.1,225.4z"/>
<path class="st0" d="M394.2,256.3L230.1,120.9L66,256.3c0,0.2,0,0.5-0.1,0.9c-0.1,0.4-0.1,0.7-0.1,0.9v137c0,4.9,1.8,9.2,5.4,12.8
	s7.9,5.4,12.8,5.4h109.6V303.7h73.1v109.6h109.6c4.9,0,9.2-1.8,12.8-5.4c3.6-3.6,5.4-7.9,5.4-12.8V258
	C394.5,257.2,394.4,256.7,394.2,256.3z M269.6,208.2c0,0.8-0.4,1.5-0.8,2c-0.5,0.6-1.2,0.8-2,0.8h-14.7c-1.4,8.4-5.1,15.2-11.3,20.5
	c-6.2,5.3-14.3,8.4-24.2,9.6c9.8,10.3,23.2,26,40.2,46.9c0.8,0.9,0.9,1.9,0.4,2.9c-0.5,1.1-1.4,1.5-2.6,1.5h-17
	c-0.9,0-1.8-0.4-2.2-1.1c-17.9-21.5-32.4-38.1-43.6-50.1c-0.6-0.5-0.8-1.2-0.8-1.9v-11.1c0-0.8,0.2-1.4,0.8-2s1.3-0.8,2-0.8h9.8
	c7.7,0,13.9-1.3,18.6-3.7c4.7-2.6,7.7-6.2,9-11h-37.4c-0.8,0-1.5-0.4-2-0.8c-0.6-0.5-0.8-1.2-0.8-2v-8.9c0-0.8,0.4-1.5,0.8-2
	c0.5-0.6,1.2-0.8,2-0.8h36.1c-3.4-6.7-11.2-9.9-23.5-9.9h-12.7c-0.8,0-1.4-0.2-2-0.8c-0.6-0.6-0.8-1.3-0.8-2v-11.7
	c0-0.8,0.4-1.5,0.8-2c0.5-0.6,1.2-0.8,2-0.8h72.9c0.8,0,1.4,0.4,2,0.8c0.6,0.5,0.8,1.2,0.8,2v8.9c0,0.8-0.4,1.5-0.8,2
	c-0.5,0.6-1.2,0.8-2,0.8h-20.4c2.8,3.6,4.7,7.8,5.6,12.6h15c0.8,0,1.5,0.4,2,0.8c0.5,0.5,0.8,1.2,0.9,2.3V208.2z"/>
</svg>
