<?xml version="1.0" encoding="utf-8"?>
<!-- Generator: Adobe Illustrator 24.1.3, SVG Export Plug-In . SVG Version: 6.00 Build 0)  -->
<svg version="1.1" id="Capa_1" xmlns="http://www.w3.org/2000/svg" xmlns:xlink="http://www.w3.org/1999/xlink" x="0px" y="0px"
	 viewBox="0 0 460.3 460.3" style="enable-background:new 0 0 460.3 460.3;" xml:space="preserve">
<style type="text/css">
	.st0{fill:#FFFFFF;}
</style>
<g>
	<path class="st0" d="M123.1,194.4c-0.6-0.6-1.4-1-2.4-1h-18c-1.1-5.7-3.4-10.8-6.7-15.1h24.3c1,0,1.8-0.3,2.4-1
		c0.6-0.6,1-1.4,1-2.4v-10.6c0-1-0.3-1.8-1-2.4s-1.4-1-2.4-1h-87c-1,0-1.8,0.3-2.4,1c-0.6,0.6-1,1.4-1,2.4v14c0,0.8,0.3,1.7,1,2.4
		c0.7,0.7,1.4,1,2.4,1h15.2c14.7,0,24,3.9,28.1,11.9H33.3c-1,0-1.8,0.3-2.4,1c-0.6,0.6-1,1.4-1,2.4v10.6c0,1,0.3,1.8,1,2.4
		c0.6,0.6,1.4,1,2.4,1h44.7c-1.5,5.7-5.2,10.1-10.8,13.1c-5.6,2.9-13,4.5-22.2,4.5H33.3c-0.8,0-1.7,0.3-2.4,1c-0.7,0.7-1,1.4-1,2.4
		v13.3c0,0.8,0.3,1.7,1,2.2c13.4,14.3,30.8,34.1,52.1,59.8c0.6,0.8,1.5,1.3,2.7,1.3h20.4c1.4,0,2.5-0.6,3.1-1.8
		c0.7-1.3,0.6-2.4-0.4-3.5c-20.4-25-36.4-43.8-48.1-56.1c11.9-1.4,21.5-5.2,28.9-11.5c7.4-6.3,11.9-14.4,13.6-24.5h17.6
		c1,0,1.8-0.3,2.4-1c0.6-0.6,1-1.4,1-2.4v-10.6C123.9,195.8,123.7,195.1,123.1,194.4z"/>
</g>
<path class="st0" d="M445.3,254.7c-2.2-8-10.5-12.6-18.5-10.4L26.5,355.6c-8,2.2-12.6,10.5-10.4,18.4c1.8,6.6,7.9,11,14.4,11
	c1.3,0,2.7-0.2,4-0.6l154.3-42.9l-11,60.6H273l-14.5-79.9l176.4-49.1C442.9,271,447.5,262.7,445.3,254.7z"/>
<path class="st0" d="M356.1,416.7H94.7c-8.3,0-15,6.7-15,15s6.7,15,15,15h261.4c8.3,0,15-6.7,15-15
	C371.1,423.4,364.4,416.7,356.1,416.7z"/>
<g>
	<g>
		<path class="st0" d="M322,104l-76.4,63c0,0.1,0,0.2-0.1,0.4c0,0.1-0.1,0.4-0.1,0.4v63.7c0,2.3,0.9,4.3,2.6,6
			c1.7,1.7,3.7,2.6,6,2.6h51v-51H339v51h51c2.3,0,4.3-0.9,6-2.6c1.7-1.7,2.6-3.7,2.6-6v-63.7c0-0.4,0-0.6-0.1-0.9L322,104z"/>
		<path class="st0" d="M427.6,152.6l-29.1-24.2V74.2c0-1.2-0.4-2.3-1.2-3.1c-0.7-0.9-1.8-1.2-3.1-1.2h-25.5c-1.2,0-2.3,0.4-3.1,1.2
			c-0.9,0.9-1.2,1.8-1.2,3.1v25.9L332.1,73c-2.8-2.3-6.2-3.4-10.1-3.4c-3.9,0-7.3,1.1-10.1,3.4l-95.6,79.6c-0.9,0.7-1.3,1.7-1.5,2.8
			c-0.1,1.2,0.2,2.2,1,3.2l8.2,9.9c0.7,0.9,1.6,1.3,2.8,1.5c1.1,0.1,2.1-0.2,3.2-1l91.9-76.7l91.9,76.7c0.7,0.6,1.6,1,2.8,1h0.4
			c1.1-0.1,2.1-0.6,2.8-1.5l8.2-9.9c0.7-0.9,1-2,1-3.2C429,154.3,428.5,153.3,427.6,152.6z"/>
	</g>
</g>
</svg>
