<?xml version="1.0" encoding="utf-8"?>
<!-- Generator: Adobe Illustrator 24.1.3, SVG Export Plug-In . SVG Version: 6.00 Build 0)  -->
<svg version="1.1" id="Capa_1" xmlns="http://www.w3.org/2000/svg" xmlns:xlink="http://www.w3.org/1999/xlink" x="0px" y="0px"
	 viewBox="0 0 460.3 460.3" style="enable-background:new 0 0 460.3 460.3;" xml:space="preserve">
<style type="text/css">
	.st0{fill:#FFFFFF;}
</style>
<path class="st0" d="M20.1,432.4h25.8c7.1,0,12.9-5.8,12.9-12.9v-142H20.1c-7.1,0-12.9,5.8-12.9,12.9v129.1
	C7.2,426.7,13,432.4,20.1,432.4z"/>
<path class="st0" d="M240.3,439.3h2.8c43.4-0.5,85-12.8,121.7-35l72.1-50.4c12.1-8.5,14.5-24.5,6.5-35.9
	c-8.3-11.9-24.3-14.7-35.9-6.5l-69.2,48.6c-22.2,12.9-49.3,15.8-73.9,7.5l-79.6-26.3c-6.7-2.1-10.3-9.6-8-16.3
	c2.1-6.5,8.8-10.1,15.5-8.3c0.3,0,89.5,28.9,89.5,28.9c15,4.5,28.4-4,32.5-16.5c4.4-13.7-3.1-28.2-16.5-32.5l-121.5-39.8
	c-26.6-9.7-62.4-7.7-91.5,8.6V410L186,433C204.6,437,222.8,439.3,240.3,439.3L240.3,439.3z"/>
<path class="st0" d="M338.9,45c-57.1,0-103.3,46.2-103.3,103.3s46.2,103.3,103.3,103.3s103.3-46.2,103.3-103.3S396,45,338.9,45z
	 M372.7,129.1c0,0.7-0.3,1.3-0.7,1.7c-0.4,0.5-1,0.7-1.7,0.7h-12.6c-1.2,7.2-4.4,13-9.7,17.5c-5.3,4.5-12.2,7.2-20.7,8.2
	c8.4,8.8,19.8,22.2,34.4,40.1c0.7,0.8,0.8,1.6,0.3,2.5c-0.4,0.9-1.2,1.3-2.2,1.3h-14.6c-0.8,0-1.5-0.3-1.9-0.9
	c-15.3-18.4-27.7-32.6-37.3-42.8c-0.5-0.4-0.7-1-0.7-1.6v-9.5c0-0.7,0.2-1.2,0.7-1.7s1.1-0.7,1.7-0.7h8.4c6.6,0,11.9-1.1,15.9-3.2
	c4-2.2,6.6-5.3,7.7-9.4h-32c-0.7,0-1.3-0.3-1.7-0.7c-0.5-0.4-0.7-1-0.7-1.7v-7.6c0-0.7,0.3-1.3,0.7-1.7c0.4-0.5,1-0.7,1.7-0.7h30.9
	c-2.9-5.7-9.6-8.5-20.1-8.5h-10.9c-0.7,0-1.2-0.2-1.7-0.7s-0.7-1.1-0.7-1.7V98c0-0.7,0.3-1.3,0.7-1.7c0.4-0.5,1-0.7,1.7-0.7h62.3
	c0.7,0,1.2,0.3,1.7,0.7c0.5,0.4,0.7,1,0.7,1.7v7.6c0,0.7-0.3,1.3-0.7,1.7c-0.4,0.5-1,0.7-1.7,0.7h-17.4c2.4,3.1,4,6.7,4.8,10.8h12.8
	c0.7,0,1.3,0.3,1.7,0.7c0.4,0.4,0.7,1,0.9,2V129.1z"/>
</svg>
